<svg width="16" height="16" viewBox="0 0 16 16" fill="none" xmlns="http://www.w3.org/2000/svg">
<path d="M15.9163 2.7227C15.8513 2.45395 15.7355 2.18866 15.5757 1.94829C15.5027 1.83378 15.4068 1.7143 15.2933 1.59997C15.2936 1.60019 15.2937 1.60028 15.2937 1.60028C15.2942 1.60028 15.175 1.47553 15.0298 1.38052L14.9494 1.32635C14.5805 1.08606 14.1576 0.949253 13.7134 0.922166C13.6559 0.918575 13.598 0.916801 13.5406 0.916668C13.4221 0.829333 13.2857 0.76904 13.1388 0.743327C12.4032 0.338037 10.9565 0 8.10878 0C8.08432 0 8.06007 0.000975303 8.03602 0.0028373L8.02337 0.0025713C7.90077 0.000930988 7.77915 0 7.65997 0C4.90465 0 3.51562 0.343357 2.81474 0.752814C2.68575 0.782296 2.56572 0.838687 2.46001 0.916668C2.40255 0.916801 2.34465 0.918619 2.28622 0.92221C1.84294 0.949253 1.41993 1.08606 1.06398 1.31788L0.971204 1.38017C0.822645 1.4773 0.699273 1.60764 0.684869 1.62311C0.593439 1.71475 0.497655 1.83405 0.413875 1.96523C0.265194 2.18818 0.149309 2.4536 0.0807465 2.73675C-0.0324121 3.17954 -0.027041 3.67665 0.0994231 4.16254C0.141578 4.34217 0.198951 4.48683 0.24139 4.59376L0.26853 4.66332C0.284155 4.70495 0.302181 4.74551 0.322444 4.78475L0.36232 4.86463C0.419408 4.98047 0.478368 5.0949 0.544896 5.19917C0.821302 5.65118 1.16269 6.07039 1.57765 6.46318C2.22885 7.08672 3.02267 7.61038 4.00028 8.06014C4.03865 8.07849 4.07999 8.09751 4.12292 8.11688C4.51777 8.59373 4.90901 9.01413 5.20417 9.33134C5.23278 9.3621 5.26305 9.39092 5.29483 9.4177C5.725 9.77998 6.34272 10.9332 6.33144 11.9158C6.33063 11.9858 6.32831 12.0405 6.32554 12.0825C6.25015 12.1394 6.15603 12.2139 6.05158 12.3139C5.2532 12.4325 4.31005 12.6871 4.27779 13.6751C4.26025 13.8539 4.26175 14.0717 4.27087 14.3695L4.27221 14.4153C4.26297 15.2005 4.69189 15.9562 7.86509 15.9994L7.96087 16L8.10727 15.9992C8.10699 15.9992 8.1113 15.9992 8.11826 15.9992C8.12778 15.9992 8.14231 15.9992 8.15687 15.9989L8.17929 14.9094L8.19394 15.9989C8.2114 15.9987 8.22873 15.998 8.24607 15.9969C11.3214 15.9304 11.7374 15.1855 11.7284 14.3903L11.7297 14.3696C11.7388 14.0718 11.7403 13.854 11.7227 13.6752C11.692 12.6871 10.748 12.4325 9.94898 12.3139C9.84453 12.2139 9.75041 12.1394 9.67501 12.0825C9.67225 12.0405 9.66993 11.9858 9.66911 11.9158C9.65784 10.9332 10.2755 9.77998 10.7056 9.41765C10.7374 9.39092 10.7677 9.36206 10.7963 9.33134C11.0915 9.01418 11.4827 8.59364 11.8776 8.11688C11.9226 8.09653 11.9675 8.07588 12.0122 8.05455C12.9779 7.61038 13.7717 7.08668 14.4271 6.45915C14.8377 6.07048 15.1791 5.65132 15.4666 5.18166C15.5224 5.09445 15.5815 4.97981 15.6386 4.86375L15.6784 4.78417C15.6984 4.74533 15.7162 4.70517 15.7317 4.66394L15.7588 4.59474C15.8013 4.48754 15.8588 4.34261 15.9011 4.16262C16.0276 3.67656 16.0329 3.17919 15.9163 2.7227ZM14.9352 3.87996C14.9053 4.01464 14.852 4.12964 14.8065 4.25062C14.7498 4.36053 14.6987 4.47668 14.6346 4.57718C14.3839 4.98681 14.0915 5.33363 13.767 5.64077C13.1231 6.2573 12.373 6.70599 11.6113 7.05644C11.5029 7.10814 11.3935 7.15531 11.2845 7.20398C10.8714 7.7186 10.451 8.17212 10.0941 8.55564C9.43185 9.11339 8.65374 10.584 8.6692 11.9294C8.68165 13.0191 8.99439 12.7209 9.46945 13.3336C9.46754 13.3383 9.46558 13.3425 9.46367 13.347C10.0831 13.4241 10.7217 13.561 10.7235 13.7224C10.7236 13.7284 10.7225 13.7344 10.7214 13.7404C10.7505 13.8853 10.7279 14.3576 10.7285 14.4037C10.7314 14.6592 9.49769 14.8807 8.21661 14.9078V14.9093C8.20908 14.9094 8.20151 14.9094 8.19394 14.9094C8.18418 14.9094 8.17441 14.9093 8.16465 14.9093C8.15838 14.9093 8.15211 14.9094 8.14589 14.9094C8.1382 14.9095 8.13059 14.9098 8.1229 14.91V14.9095C8.0689 14.9099 8.01499 14.9105 7.96087 14.9105C7.93316 14.9105 7.90541 14.9103 7.87758 14.91C6.56362 14.8921 5.26911 14.6655 5.27208 14.4037C5.27265 14.3576 5.25003 13.8853 5.27908 13.7404C5.27798 13.7344 5.27693 13.7284 5.27697 13.7224C5.27888 13.561 5.91747 13.4241 6.53689 13.347C6.53489 13.3425 6.53302 13.3383 6.53111 13.3336C7.00616 12.7209 7.31891 13.0191 7.33136 11.9294C7.34678 10.584 6.56867 9.11339 5.9064 8.55564C5.54951 8.17212 5.12906 7.7186 4.7161 7.20398C4.60705 7.15531 4.49767 7.10814 4.38928 7.05644C3.62756 6.70599 2.87748 6.2573 2.23353 5.64077C1.90911 5.33363 1.61663 4.98681 1.36594 4.57718C1.30181 4.47668 1.25074 4.36053 1.19402 4.25062C1.14857 4.12964 1.09523 4.01464 1.06536 3.87996C0.995943 3.62137 0.970349 3.31746 1.04766 3.01472C1.08412 2.86412 1.14772 2.71817 1.23463 2.58766C1.27719 2.52103 1.3261 2.46042 1.38628 2.39969C1.41025 2.37397 1.46461 2.32711 1.48821 2.3128L1.57695 2.25308C1.8167 2.09698 2.08891 2.02547 2.34306 2.01C2.38485 2.00739 2.42631 2.00615 2.46741 2.00615C2.6399 2.00615 2.80632 2.02782 2.96737 2.06156C2.9845 1.98256 3.00167 1.90414 3.02039 1.81906C3.04049 1.85617 3.06954 1.89035 3.09802 1.92471C3.09802 1.92453 3.0979 1.92435 3.0979 1.92417C3.10197 1.56357 4.82974 1.08952 7.65997 1.08952C7.77516 1.08952 7.89267 1.09041 8.01149 1.092C8.04408 1.0924 8.07623 1.09347 8.10849 1.09427L8.10878 1.08952C10.939 1.08952 12.8985 1.56357 12.9027 1.92417C12.9027 1.92435 12.9025 1.92453 12.9025 1.92471C12.931 1.89035 12.96 1.85617 12.9802 1.81906C12.9988 1.90414 13.0161 1.98256 13.0332 2.06156C13.1942 2.02782 13.3606 2.00615 13.5331 2.00615C13.5742 2.00615 13.6157 2.00739 13.6575 2.01C13.9116 2.02547 14.1838 2.09698 14.4236 2.25308L14.5123 2.3128C14.5359 2.32711 14.5903 2.37397 14.6142 2.39969C14.6745 2.46042 14.7234 2.52103 14.7659 2.58766C14.8528 2.71817 14.9164 2.86412 14.9529 3.01472C15.0302 3.31746 15.0045 3.62137 14.9352 3.87996Z" fill="#3F8CFF"/>
<path d="M14.1736 3.08303C14.1562 3.05927 14.1335 3.03848 14.1171 3.02562C14.1029 3.01454 14.1173 3.02527 14.0956 3.01339L14.0507 2.99042C13.9416 2.93408 13.815 2.90743 13.6754 2.90743C13.6631 2.90743 13.6506 2.90765 13.6381 2.90805C13.484 2.91302 13.3183 2.94919 13.1539 3.00638C13.1486 3.0082 13.1428 3.01068 13.1375 3.01255C13.1361 3.05471 13.1386 3.09257 13.1353 3.13685C13.0378 4.43589 12.4517 5.59644 11.7583 6.57801C12.3693 6.20304 12.939 5.76774 13.4125 5.23162C13.6853 4.92821 13.925 4.58414 14.1026 4.23303C14.2822 3.88466 14.3568 3.49927 14.2646 3.24862C14.244 3.18491 14.2117 3.12905 14.1736 3.08303Z" fill="#3F8CFF"/>
<path d="M2.86404 3.01255C2.85867 3.01068 2.85302 3.0082 2.84769 3.00638C2.68322 2.94919 2.51749 2.91302 2.36352 2.90805C2.35094 2.90765 2.33845 2.90743 2.32608 2.90743C2.18652 2.90743 2.05997 2.93408 1.95084 2.99042L1.90588 3.01339C1.88427 3.02527 1.89872 3.01454 1.88439 3.02562C1.86796 3.03848 1.84537 3.05927 1.828 3.08303C1.78987 3.12905 1.75761 3.18491 1.73693 3.24862C1.64469 3.49927 1.71928 3.88466 1.89896 4.23303C2.07657 4.58414 2.3162 4.92821 2.5891 5.23162C3.06253 5.76774 3.63223 6.20304 4.24319 6.57801C3.54987 5.59639 2.96369 4.43589 2.86628 3.13685C2.86291 3.09257 2.86547 3.05471 2.86404 3.01255Z" fill="#3F8CFF"/>
<path d="M8.97537 3.13337H8.60725L8.44526 4.43152H7.7965L7.95239 3.13337H7.59077L7.42842 4.43152H6.83573V4.8326H7.37235L7.25374 5.81794H6.68604V6.21902H7.19771L7.03536 7.55108H7.40962L7.57198 6.21902H8.22069L8.05834 7.55108H8.43261L8.59496 6.21902H9.18761V5.81794H8.65099L8.76313 4.8326H9.33084V4.43152H8.81953L8.97537 3.13337ZM8.27672 5.81794H7.62801L7.74662 4.8326H8.39534L8.27672 5.81794Z" fill="#3F8CFF"/>
</svg>
