<svg width="60" height="60" viewBox="0 0 60 60" fill="none" xmlns="http://www.w3.org/2000/svg">
<g clip-path="url(#clip0)">
<path d="M52.8044 25.2663C52.5831 24.8481 52.5831 24.3488 52.8043 23.9308L53.5428 22.5357C54.679 20.3892 54.0616 17.6839 52.1066 16.243L50.836 15.3065C50.4551 15.0258 50.2385 14.576 50.2565 14.1034L50.3167 12.526C50.4091 10.0992 48.679 7.92975 46.2924 7.47973L44.7412 7.18726C44.2763 7.09958 43.886 6.78835 43.6972 6.35462L43.0669 4.90738C42.0971 2.68084 39.5973 1.47661 37.2517 2.10692L35.7272 2.51649C35.2705 2.63911 34.7835 2.5281 34.4253 2.21933L33.2295 1.18882C31.3899 -0.396274 28.615 -0.396274 26.7752 1.18882L25.5793 2.21933C25.2209 2.5281 24.7343 2.63911 24.2775 2.51649L22.753 2.10692C20.4072 1.47684 17.9076 2.68084 16.9378 4.90738L16.3073 6.35474C16.1185 6.78835 15.7283 7.09958 15.2634 7.18726L13.7121 7.47973C11.3256 7.92975 9.59549 10.0992 9.68786 12.526L9.74788 14.1034C9.76593 14.5761 9.5493 15.0259 9.16856 15.3065L7.89786 16.2431C5.94292 17.684 5.32551 20.3893 6.46164 22.5358L7.20014 23.9309C7.42146 24.3489 7.42146 24.8481 7.20014 25.2663L6.46164 26.6614C5.32551 28.8077 5.94292 31.513 7.89786 32.954L9.16844 33.8905C9.5493 34.1713 9.76581 34.6209 9.74776 35.0938L9.68774 36.6712C9.59537 39.0981 11.3255 41.2675 13.712 41.7174L14.5258 41.8709L14.6459 45.6285L23.3205 50.0362L27.083 48.2515C27.9458 48.8814 28.9738 49.1972 30.0022 49.1972C31.0149 49.1972 32.0274 48.8916 32.8819 48.2809L35.9806 50.3877L44.6551 45.9623L45.428 41.8804L46.2925 41.7173C48.6791 41.2674 50.4092 39.0979 50.3168 36.6709L50.2567 35.0937C50.2387 34.6209 50.4552 34.1712 50.836 33.8905L52.1067 32.954C54.0617 31.5131 54.6792 28.8078 53.5429 26.6614L52.8044 25.2663Z" fill="url(#paint0_linear)"/>
<path d="M45.829 24.5986C45.829 15.8726 38.7298 8.77344 30.0038 8.77344C21.2778 8.77344 14.1787 15.8726 14.1787 24.5986C14.1787 33.3246 21.2778 40.4238 30.0038 40.4238C38.7298 40.4238 45.829 33.3246 45.829 24.5986ZM37.9204 23.6843L35.2378 26.2992L35.871 29.9915C35.9841 30.6511 35.7129 31.3179 35.1714 31.7113C34.6348 32.1011 33.9175 32.1593 33.3196 31.8451L30.0037 30.1019L26.6878 31.8451C26.0954 32.1566 25.3776 32.1048 24.836 31.7113C24.2946 31.3179 24.0233 30.6512 24.1366 29.9915L24.7698 26.2992L22.0872 23.6843C21.6079 23.2171 21.4354 22.5184 21.6423 21.8818C21.8491 21.2453 22.3993 20.7813 23.0618 20.6851L26.7691 20.1465L28.427 16.7871C28.7232 16.1869 29.3345 15.8068 30.0037 15.8068C30.673 15.8068 31.2843 16.1868 31.5805 16.7869L33.2385 20.1463L36.9458 20.685C37.6081 20.7812 38.1584 21.2452 38.3652 21.8817C38.5719 22.5182 38.3996 23.2171 37.9204 23.6843ZM25.5809 46.9777C25.2227 46.669 24.7359 46.5581 24.279 46.6806L22.7545 47.09C20.4089 47.7203 17.9091 46.5161 16.9393 44.2896L16.309 42.8424C16.12 42.4086 15.7298 42.0975 15.2649 42.0097L14.5274 41.8707L8.92297 51.9979C8.61174 52.5604 8.63225 53.2478 8.9763 53.7906C9.32035 54.3335 9.93367 54.6459 10.5746 54.6041L15.7213 54.2722L18.0158 59.0083C18.3026 59.6004 18.896 59.9827 19.5537 59.9995C19.5686 59.9999 19.5835 60.0001 19.5984 60.0001C20.239 60.0001 20.8305 59.6511 21.1398 59.0875L27.0846 48.2514C26.9796 48.1747 26.8766 48.0942 26.7767 48.0081L25.5809 46.9777ZM51.0287 51.9981L45.4296 41.8803L44.7428 42.0097C44.278 42.0974 43.8877 42.4086 43.6989 42.8423L43.0685 44.2896C42.2722 46.1178 40.4438 47.2566 38.5168 47.2567C38.0971 47.2567 37.673 47.2027 37.2533 47.09L35.7288 46.6806C35.2721 46.558 34.7852 46.669 34.427 46.9777L33.2311 48.0081C33.1187 48.1051 33.0027 48.1958 32.8837 48.2808L38.812 59.0874C39.1214 59.6512 39.7129 60.0001 40.3534 60.0001C40.3683 60.0001 40.3833 60 40.3982 59.9995C41.0558 59.9829 41.6492 59.6005 41.936 59.0084L44.2305 54.2723L49.3771 54.6042C50.0168 54.646 50.6313 54.3337 50.9755 53.7908C51.3194 53.2478 51.3399 52.5605 51.0287 51.9981Z" fill="url(#paint1_linear)"/>
</g>
<defs>
<linearGradient id="paint0_linear" x1="30.002" y1="50.3876" x2="30.002" y2="-6.00668e-05" gradientUnits="userSpaceOnUse">
<stop stop-color="#FD5900"/>
<stop offset="1" stop-color="#FFDE00"/>
</linearGradient>
<linearGradient id="paint1_linear" x1="29.9758" y1="60.0001" x2="29.9758" y2="8.77344" gradientUnits="userSpaceOnUse">
<stop stop-color="#FFE59A"/>
<stop offset="1" stop-color="#FFFFD5"/>
</linearGradient>
<clipPath id="clip0">
<rect width="60" height="60" fill="white"/>
</clipPath>
</defs>
</svg>
