<svg width="24" height="29" viewBox="0 0 24 29" fill="none" xmlns="http://www.w3.org/2000/svg">
<path d="M16.3195 0.597656H5.07358C3.43066 0.597656 2.09349 1.93575 2.09349 3.57774V14.5976H1.80243C1.13933 14.5976 0.601562 15.1348 0.601562 15.7985V23.0813C0.601562 23.7449 1.13927 24.2821 1.80243 24.2821H2.09349V25.6175C2.09349 27.2613 3.43066 28.5976 5.07358 28.5976H20.4182C22.0601 28.5976 23.3974 27.2612 23.3974 25.6175V7.65074L16.3195 0.597656ZM3.75193 17.1128C4.10386 17.0533 4.59853 17.0085 5.29549 17.0085C5.99981 17.0085 6.50181 17.1429 6.8391 17.413C7.1613 17.6675 7.37873 18.0875 7.37873 18.5819C7.37873 19.0761 7.21397 19.4962 6.91419 19.7809C6.52428 20.1479 5.94766 20.3126 5.27313 20.3126C5.123 20.3126 4.98845 20.3052 4.88321 20.2906V22.0965H3.75193V17.1128ZM20.4182 26.7726H5.07358C4.43744 26.7726 3.91941 26.2545 3.91941 25.6175V24.2821H18.2237C18.8869 24.2821 19.4246 23.7449 19.4246 23.0813V15.7985C19.4246 15.1348 18.8869 14.5976 18.2237 14.5976H3.91941V3.57774C3.91941 2.94253 4.43749 2.4245 5.07358 2.4245L15.6367 2.41347V6.31799C15.6367 7.45845 16.5621 8.38468 17.7034 8.38468L21.5283 8.3737L21.5714 25.6174C21.5714 26.2545 21.0543 26.7726 20.4182 26.7726ZM8.1082 22.0736V17.1128C8.52779 17.046 9.07468 17.0085 9.65182 17.0085C10.611 17.0085 11.233 17.1806 11.7203 17.5475C12.2448 17.9375 12.5742 18.559 12.5742 19.4513C12.5742 20.4178 12.2223 21.0851 11.7349 21.4969C11.2031 21.939 10.3936 22.1486 9.40466 22.1486C8.81241 22.1486 8.39283 22.1111 8.1082 22.0736ZM16.2866 19.1365V20.0655H14.473V22.0965H13.3266V17.046H16.4138V17.9823H14.473V19.1365H16.2866Z" fill="#E91616"/>
</svg>
