<svg width="28" height="29" viewBox="0 0 28 29" fill="none" xmlns="http://www.w3.org/2000/svg">
<g clip-path="url(#clip0)">
<path d="M7.31694 18.6114C7.31694 18.1464 6.99481 17.8691 6.42544 17.8691C6.19297 17.8691 6.03553 17.8921 5.95312 17.914V19.406C6.05023 19.4279 6.17009 19.4352 6.33485 19.4352C6.94167 19.4352 7.31694 19.1287 7.31694 18.6114Z" fill="#F2994A"/>
<path d="M18.3195 0.597656H7.07364C5.43066 0.597656 4.09349 1.93575 4.09349 3.57774V14.5976H3.80237C3.13881 14.5976 2.60156 15.1348 2.60156 15.7985V23.0813C2.60156 23.7449 3.13881 24.2821 3.80237 24.2821H4.09349V25.6175C4.09349 27.2613 5.43066 28.5976 7.07364 28.5976H22.4181C24.0601 28.5976 25.3974 27.2612 25.3974 25.6175V7.65074L18.3195 0.597656ZM4.82291 17.1128C5.17438 17.0533 5.66865 17.0085 6.36606 17.0085C7.0708 17.0085 7.57238 17.1429 7.9102 17.413C8.23228 17.6675 8.44925 18.0875 8.44925 18.5819C8.44925 19.0761 8.28449 19.4962 7.98518 19.7809C7.59527 20.1479 7.01772 20.3126 6.34411 20.3126C6.19399 20.3126 6.05856 20.3052 5.95414 20.2906V22.0965H4.82291V17.1128ZM22.4181 26.7726H7.07364C6.43749 26.7726 5.91941 26.2545 5.91941 25.6175V24.2821H20.2234C20.8869 24.2821 21.4242 23.7449 21.4242 23.0813V15.7985C21.4242 15.1348 20.8869 14.5976 20.2234 14.5976H5.91941V3.57774C5.91941 2.94253 6.43749 2.4245 7.07364 2.4245L17.6368 2.41347V6.31799C17.6368 7.45845 18.5622 8.38468 19.7035 8.38468L23.5283 8.3737L23.5714 25.6174C23.5714 26.2545 23.0543 26.7726 22.4181 26.7726ZM12.3116 18.5223V17.046H13.3606V22.0965H12.1617L11.0825 20.1478C10.7823 19.6087 10.4528 18.9561 10.2057 18.3648L10.1836 18.3721C10.213 19.0385 10.2286 19.7505 10.2286 20.5753V22.0965H9.17872V17.046H10.5132L11.5621 18.8966C11.8624 19.4284 12.1617 20.0581 12.3868 20.6274H12.4088C12.3337 19.9612 12.3116 19.2783 12.3116 18.5223ZM16.9073 21.2269C17.1699 21.2269 17.3796 21.1967 17.4693 21.1519V20.0957H16.6904V19.2041H18.5713V21.8639C18.2189 21.9839 17.5517 22.1486 16.8853 22.1486C15.9637 22.1486 15.2965 21.9161 14.8315 21.4667C14.3674 21.032 14.112 20.373 14.1203 19.6307C14.1276 17.9521 15.3487 16.9929 17.0053 16.9929C17.657 16.9929 18.1594 17.1201 18.4066 17.2409L18.1668 18.1543C17.8895 18.0345 17.5444 17.9375 16.9897 17.9375C16.0388 17.9375 15.3193 18.4766 15.3193 19.5712C15.3192 20.6128 15.9709 21.2269 16.9073 21.2269Z" fill="#F2994A"/>
</g>
<defs>
<clipPath id="clip0">
<rect width="28" height="28" fill="white" transform="translate(0 0.597656)"/>
</clipPath>
</defs>
</svg>
