<svg width="24" height="29" viewBox="0 0 24 29" fill="none" xmlns="http://www.w3.org/2000/svg">
<path d="M16.3196 0.597656H5.07364C3.43072 0.597656 2.09349 1.93575 2.09349 3.57774V14.5976H1.80237C1.13927 14.5976 0.601562 15.1348 0.601562 15.7985V23.0813C0.601562 23.7449 1.13927 24.2821 1.80237 24.2821H2.09349V25.6175C2.09349 27.2613 3.43066 28.5976 5.07364 28.5976H20.4181C22.0602 28.5976 23.3973 27.2612 23.3973 25.6175V7.65074L16.3196 0.597656ZM3.6586 17.046H4.96969L5.41175 17.9676C5.56181 18.2743 5.67448 18.5223 5.79434 18.8069H5.80898C5.92884 18.4847 6.02641 18.2595 6.15406 17.9676L6.58108 17.046H7.88485L6.4611 19.5108L7.95982 22.0964H6.64095L6.18379 21.182C5.99662 20.8296 5.87675 20.5679 5.73389 20.275H5.71925C5.61397 20.5679 5.48684 20.8296 5.32934 21.182L4.90964 22.0964H3.60587L5.06714 19.5409L3.6586 17.046ZM20.4181 26.7726H5.07364C4.43744 26.7726 3.91947 26.2545 3.91947 25.6175V24.2821H18.2238C18.8869 24.2821 19.4246 23.7449 19.4246 23.0813V15.7985C19.4246 15.1348 18.8869 14.5976 18.2238 14.5976H3.91947V3.57774C3.91947 2.94253 4.43749 2.4245 5.07364 2.4245L15.6368 2.41347V6.31799C15.6368 7.45845 16.5622 8.38468 17.7034 8.38468L21.5283 8.3737L21.5714 25.6174C21.5714 26.2545 21.0543 26.7726 20.4181 26.7726ZM11.7318 21.1372V22.0965H8.57681V17.046H9.72325V21.1372H11.7318ZM13.6671 19.9758C12.8278 19.6839 12.2804 19.2189 12.2804 18.4848C12.2804 17.6225 12.9999 16.9636 14.1916 16.9636C14.7613 16.9636 15.1804 17.0835 15.4807 17.2181L15.2257 18.1398C15.0235 18.0427 14.6638 17.8999 14.169 17.8999C13.6743 17.8999 13.4346 18.1252 13.4346 18.387C13.4346 18.7091 13.7192 18.8519 14.3714 19.0989C15.2633 19.4285 15.683 19.8935 15.683 20.6056C15.683 21.4521 15.0308 22.1716 13.6447 22.1716C13.0675 22.1716 12.4978 22.0215 12.2131 21.864L12.4457 20.9203C12.7527 21.0778 13.225 21.2343 13.7119 21.2343C14.2363 21.2343 14.5137 21.0174 14.5137 20.6878C14.5137 20.373 14.274 20.1927 13.6671 19.9758Z" fill="#07BB4A"/>
</svg>
