<svg width="150" height="66" viewBox="0 0 150 66" fill="none" xmlns="http://www.w3.org/2000/svg">
<path d="M127.149 40.4279C134.903 40.4279 141.19 34.1415 141.19 26.3868C141.19 18.6321 134.903 12.3457 127.149 12.3457C119.394 12.3457 113.107 18.6321 113.107 26.3868C113.107 34.1415 119.394 40.4279 127.149 40.4279Z" fill="#FFB531"/>
<path d="M127.148 37.2275C133.135 37.2275 137.989 32.3737 137.989 26.3862C137.989 20.3987 133.135 15.5449 127.148 15.5449C121.16 15.5449 116.307 20.3987 116.307 26.3862C116.307 32.3737 121.16 37.2275 127.148 37.2275Z" fill="white"/>
<path d="M127.15 34.3616C131.554 34.3616 135.125 30.7908 135.125 26.3859C135.125 21.981 131.554 18.4102 127.15 18.4102C122.745 18.4102 119.174 21.981 119.174 26.3859C119.174 30.7908 122.745 34.3616 127.15 34.3616Z" fill="#FFB531"/>
<path d="M127.149 31.501C129.974 31.501 132.265 29.2106 132.265 26.3853C132.265 23.5599 129.974 21.2695 127.149 21.2695C124.324 21.2695 122.033 23.5599 122.033 26.3853C122.033 29.2106 124.324 31.501 127.149 31.501Z" fill="white"/>
<path d="M127.149 28.9554C128.567 28.9554 129.717 27.8054 129.717 26.3869C129.717 24.9683 128.567 23.8184 127.149 23.8184C125.73 23.8184 124.58 24.9683 124.58 26.3869C124.58 27.8054 125.73 28.9554 127.149 28.9554Z" fill="#3F8CFF"/>
<path d="M145.369 11.3435L145.369 11.3438L142.345 13.4944C142.345 13.4945 142.345 13.4945 142.345 13.4945C141.259 14.2673 140.685 15.0455 140.45 15.7594C140.218 16.4644 140.299 17.1592 140.624 17.8163L140.768 18.1067L140.977 18.3881C141.494 19.0851 142.159 19.5177 142.947 19.6028C143.743 19.6887 144.749 19.4297 145.958 18.5697L145.958 18.5697L148.979 16.4194C148.979 16.4194 148.979 16.4194 148.979 16.4194C148.98 16.4193 148.98 16.4193 148.98 16.4193C149.029 16.3838 149.075 16.3505 149.117 16.3191C149.037 16.3154 148.95 16.3123 148.856 16.3093C148.806 16.3077 148.754 16.3062 148.701 16.3046C148.199 16.2897 147.57 16.271 146.992 16.166C146.369 16.0528 145.667 15.8176 145.258 15.2436L145.369 11.3435ZM145.369 11.3435C145.418 11.3088 145.463 11.2772 145.506 11.2482M145.369 11.3435L145.506 11.2482M145.506 11.2482C145.483 11.3245 145.458 11.4068 145.43 11.4952C145.415 11.5429 145.4 11.5921 145.384 11.6426C145.233 12.1225 145.045 12.7228 144.955 13.3038C144.858 13.9296 144.85 14.6698 145.258 15.2435L145.506 11.2482ZM149.67 16.3831C149.669 16.3831 149.668 16.3826 149.665 16.3813C149.668 16.3824 149.67 16.3831 149.67 16.3831ZM149.526 15.9561C149.527 15.9542 149.527 15.9532 149.527 15.9532C149.528 15.9532 149.527 15.9541 149.526 15.9561ZM145.988 10.9778C145.988 10.9779 145.987 10.9782 145.985 10.9785C145.987 10.978 145.988 10.9778 145.988 10.9778ZM145.627 10.7021C145.627 10.702 145.627 10.7035 145.628 10.7067C145.627 10.7037 145.627 10.7021 145.627 10.7021Z" fill="white" stroke="#333333"/>
<path d="M93.8927 23.7393H93.8923C93.7182 23.7393 93.5585 23.6442 93.4755 23.4915L91.4694 19.8131L87.7958 17.7978C87.643 17.7143 87.5488 17.5541 87.5488 17.3805C87.5488 17.2065 87.644 17.0468 87.7967 16.9637L91.475 14.9577L93.4903 11.284C93.5739 11.1318 93.7335 11.0371 93.9071 11.0371H93.9076C94.0816 11.0371 94.2413 11.1323 94.3244 11.285L96.3304 14.9633L100.004 16.9786C100.157 17.0621 100.251 17.2223 100.251 17.3959C100.251 17.5699 100.156 17.7296 100.003 17.8127L96.3248 19.8187L94.3095 23.4924C94.226 23.6446 94.0663 23.7393 93.8927 23.7393ZM89.0146 17.3824L92.0482 19.0464C92.1281 19.09 92.1935 19.1559 92.2371 19.2357L93.8941 22.2735L95.5581 19.2399C95.6017 19.1601 95.6676 19.0946 95.7474 19.051L98.7853 17.394L95.7516 15.7301C95.6718 15.6864 95.6063 15.6205 95.5627 15.5407L93.9057 12.5029L92.2418 15.5365C92.1981 15.6163 92.1322 15.6818 92.0524 15.7254L89.0146 17.3824Z" fill="#3F8CFF"/>
<path d="M104.961 9.19002H104.961C104.786 9.19002 104.627 9.09488 104.544 8.94217L103.157 6.3996L100.618 5.00671C100.465 4.92316 100.371 4.76303 100.371 4.58944C100.371 4.41539 100.466 4.25572 100.619 4.17264L103.162 2.78625L104.554 0.246924C104.638 0.0946851 104.798 0 104.971 0H104.972C105.146 0 105.305 0.0951492 105.388 0.247852L106.775 2.78996L109.315 4.18332C109.467 4.26686 109.561 4.42699 109.561 4.60058C109.561 4.77464 109.466 4.9343 109.313 5.01738L106.771 6.40378L105.378 8.94356C105.294 9.09534 105.135 9.19002 104.961 9.19002ZM101.837 4.5913L103.736 5.63284C103.816 5.67646 103.881 5.74237 103.925 5.82221L104.962 7.72426L106.004 5.82453C106.048 5.74516 106.114 5.67971 106.194 5.63608L108.095 4.59873L106.196 3.55673C106.116 3.5131 106.051 3.44719 106.007 3.36735L104.97 1.46576L103.928 3.36503C103.885 3.44487 103.819 3.51031 103.739 3.55394L101.837 4.5913Z" fill="#3F8CFF"/>
<mask id="path-9-inside-1" fill="white">
<path d="M65.8864 35.2783C70.7114 37.171 73.7757 36.764 74.5975 36.7195C75.2292 36.6854 78.6258 29.9193 79.4793 26.7832C79.7571 25.7617 78.3494 25.4658 78.3494 25.4658L71.2654 24.5299L71.7722 23.6554C73.675 19.8285 72.2487 17.1818 71.1078 16.2967C69.9672 15.4112 68.5553 15.8769 68.4766 16.6367C68.3975 17.3969 68.293 18.5162 68.2909 20.1424C68.2881 22.4575 66.6082 23.9583 66.0002 24.4258C65.966 24.4387 66.1225 24.3189 65.8906 24.5046C65.0221 25.2001 63.9883 25.8276 62.7734 26.1568L65.5425 35.3728"/>
</mask>
<path d="M65.8864 35.2783C70.7114 37.171 73.7757 36.764 74.5975 36.7195C75.2292 36.6854 78.6258 29.9193 79.4793 26.7832C79.7571 25.7617 78.3494 25.4658 78.3494 25.4658L71.2654 24.5299L71.7722 23.6554C73.675 19.8285 72.2487 17.1818 71.1078 16.2967C69.9672 15.4112 68.5553 15.8769 68.4766 16.6367C68.3975 17.3969 68.293 18.5162 68.2909 20.1424C68.2881 22.4575 66.6082 23.9583 66.0002 24.4258C65.966 24.4387 66.1225 24.3189 65.8906 24.5046C65.0221 25.2001 63.9883 25.8276 62.7734 26.1568L65.5425 35.3728" fill="white"/>
<path d="M74.5975 36.7195L74.5435 35.721L74.5435 35.721L74.5975 36.7195ZM79.4793 26.7832L80.4442 27.0458L80.4443 27.0456L79.4793 26.7832ZM78.3494 25.4658L78.5551 24.4872L78.5179 24.4794L78.4804 24.4744L78.3494 25.4658ZM71.2654 24.5299L70.4002 24.0284L69.6487 25.325L71.1344 25.5213L71.2654 24.5299ZM71.7722 23.6554L72.6374 24.1569L72.6534 24.1292L72.6677 24.1006L71.7722 23.6554ZM71.1078 16.2967L70.4946 17.0866L70.4948 17.0868L71.1078 16.2967ZM68.4766 16.6367L69.4712 16.7402L69.4713 16.7397L68.4766 16.6367ZM68.2909 20.1424L67.2909 20.1412V20.1412L68.2909 20.1424ZM66.0002 24.4258L66.3534 25.3613L66.4921 25.3089L66.6097 25.2185L66.0002 24.4258ZM65.8906 24.5046L65.2655 23.724L65.2655 23.724L65.8906 24.5046ZM62.7734 26.1568L62.5119 25.1916L61.52 25.4604L61.8157 26.4446L62.7734 26.1568ZM65.5213 36.2092C70.556 38.1842 73.8016 37.764 74.6515 37.7181L74.5435 35.721C73.7499 35.7639 70.8669 36.1578 66.2516 34.3473L65.5213 36.2092ZM74.6514 37.7181C75.0548 37.6963 75.3288 37.4564 75.4047 37.3901C75.529 37.2816 75.6409 37.1534 75.7355 37.0348C75.9285 36.7927 76.1414 36.4727 76.36 36.1151C76.8016 35.3926 77.3266 34.4171 77.8512 33.3587C78.8927 31.2573 79.991 28.7109 80.4442 27.0458L78.5144 26.5206C78.1141 27.9915 77.0873 30.3963 76.0592 32.4705C75.549 33.4999 75.053 34.4184 74.6535 35.0721C74.4515 35.4026 74.2887 35.6413 74.1717 35.788C74.1113 35.8638 74.0846 35.8876 74.0893 35.8835C74.0921 35.881 74.1226 35.8541 74.1784 35.8231C74.2276 35.7957 74.3564 35.7311 74.5435 35.721L74.6514 37.7181ZM80.4443 27.0456C80.5799 26.547 80.517 26.0718 80.2991 25.6698C80.0969 25.2968 79.7973 25.0515 79.555 24.8975C79.3079 24.7405 79.0618 24.6411 78.8889 24.5819C78.7997 24.5514 78.7231 24.5292 78.6662 24.5141C78.6375 24.5065 78.6134 24.5005 78.5947 24.4961C78.5854 24.4939 78.5773 24.4921 78.5707 24.4906C78.5674 24.4899 78.5644 24.4892 78.5618 24.4886C78.5605 24.4884 78.5593 24.4881 78.5581 24.4879C78.5576 24.4877 78.557 24.4876 78.5565 24.4875C78.5563 24.4875 78.5559 24.4874 78.5558 24.4874C78.5554 24.4873 78.5551 24.4872 78.3494 25.4658C78.1437 26.4444 78.1433 26.4444 78.143 26.4443C78.1429 26.4443 78.1425 26.4442 78.1423 26.4441C78.1419 26.4441 78.1415 26.444 78.1411 26.4439C78.1403 26.4437 78.1396 26.4436 78.139 26.4434C78.1377 26.4432 78.1368 26.443 78.1361 26.4428C78.1348 26.4425 78.1346 26.4425 78.1355 26.4427C78.1373 26.4431 78.1432 26.4445 78.1525 26.447C78.1714 26.452 78.2026 26.4609 78.2411 26.4741C78.3235 26.5023 78.4119 26.5408 78.482 26.5854C78.557 26.633 78.5572 26.6532 78.5408 26.623C78.5087 26.5637 78.5177 26.5086 78.5144 26.5207L80.4443 27.0456ZM78.4804 24.4744L71.3964 23.5385L71.1344 25.5213L78.2184 26.4572L78.4804 24.4744ZM72.1306 25.0313L72.6374 24.1569L70.9071 23.154L70.4002 24.0284L72.1306 25.0313ZM72.6677 24.1006C74.7679 19.8765 73.2633 16.7033 71.7208 15.5066L70.4948 17.0868C71.2341 17.6603 72.5821 19.7804 70.8768 23.2102L72.6677 24.1006ZM71.721 15.5068C70.9202 14.8851 69.9866 14.7119 69.1986 14.869C68.4906 15.01 67.5864 15.524 67.4819 16.5337L69.4713 16.7397C69.459 16.8586 69.3985 16.9086 69.4071 16.9014C69.4182 16.8919 69.4743 16.8533 69.5894 16.8304C69.8121 16.786 70.1548 16.8228 70.4946 17.0866L71.721 15.5068ZM67.482 16.5331C67.4008 17.3126 67.2931 18.4686 67.2909 20.1412L69.2909 20.1437C69.293 18.5638 69.3941 17.4813 69.4712 16.7402L67.482 16.5331ZM67.2909 20.1412C67.2887 21.9649 65.9456 23.2063 65.3906 23.633L66.6097 25.2185C67.2707 24.7103 69.2876 22.9501 69.2909 20.1437L67.2909 20.1412ZM65.6469 23.4902C65.6718 23.4809 65.7197 23.4638 65.7823 23.4501C65.8145 23.4429 65.8606 23.4345 65.9164 23.43C65.9702 23.4257 66.0529 23.4233 66.1522 23.4391C66.251 23.4547 66.3952 23.4929 66.5441 23.5906C66.7033 23.6951 66.835 23.8469 66.9147 24.0334C66.9899 24.2095 67 24.3715 66.9933 24.4845C66.9868 24.5961 66.9627 24.6849 66.9439 24.7413C66.9078 24.8496 66.8612 24.9264 66.8412 24.958C66.8169 24.9966 66.7947 25.0258 66.7813 25.0426C66.7548 25.0761 66.7323 25.0999 66.7232 25.1094C66.7034 25.13 66.6881 25.1439 66.6857 25.1461C66.6806 25.1507 66.6768 25.154 66.6775 25.1534C66.6776 25.1534 66.6782 25.1529 66.6788 25.1523C66.6791 25.152 66.6813 25.1501 66.6839 25.1478C66.6851 25.1468 66.6882 25.144 66.6922 25.1404C66.6941 25.1386 66.6977 25.1354 66.7021 25.1313C66.7051 25.1285 66.715 25.1192 66.7273 25.1069C66.7342 25.1 66.7521 25.0813 66.763 25.0694C66.7833 25.0462 66.8521 24.9549 66.8954 24.8838C67.0204 24.4145 66.4194 23.4826 65.7493 23.437C65.6478 23.4716 65.519 23.5344 65.488 23.5531C65.4502 23.5769 65.4216 23.5987 65.4211 23.5991C65.413 23.6051 65.4068 23.61 65.404 23.6122C65.3981 23.6168 65.3935 23.6205 65.392 23.6217C65.39 23.6233 65.3884 23.6247 65.3875 23.6254C65.3858 23.6268 65.3844 23.628 65.3839 23.6284C65.3829 23.6292 65.3816 23.6302 65.3814 23.6304C65.3797 23.6318 65.3757 23.6351 65.3683 23.6412C65.3529 23.6538 65.3217 23.679 65.2655 23.724L66.5157 25.2851C66.5754 25.2373 66.6117 25.2079 66.6332 25.1903C66.6442 25.1814 66.6511 25.1757 66.6549 25.1725C66.6561 25.1716 66.6558 25.1718 66.6556 25.1719C66.6555 25.172 66.6544 25.173 66.6529 25.1742C66.6521 25.1748 66.6506 25.1761 66.6486 25.1776C66.6473 25.1787 66.6427 25.1824 66.6369 25.187C66.6341 25.1892 66.6279 25.194 66.6198 25.2001C66.6158 25.203 66.6061 25.2101 66.6004 25.2142C66.5917 25.2204 66.568 25.2363 66.5529 25.246C66.522 25.2647 66.3931 25.3275 66.2917 25.3621C65.6216 25.3166 65.0206 24.3846 65.1455 23.9153C65.1889 23.8442 65.2576 23.753 65.278 23.7297C65.2889 23.7178 65.3067 23.6992 65.3136 23.6922C65.3259 23.6799 65.3359 23.6706 65.3389 23.6679C65.3432 23.6638 65.3467 23.6606 65.3487 23.6588C65.3526 23.6553 65.3556 23.6526 65.3568 23.6516C65.3602 23.6486 65.3636 23.6455 65.3616 23.6474C65.3593 23.6493 65.3495 23.6579 65.3376 23.6687C65.3283 23.6772 65.3054 23.6983 65.2793 23.7254C65.2671 23.7382 65.2418 23.7651 65.2132 23.8012C65.1988 23.8194 65.1757 23.8498 65.1506 23.8895C65.1377 23.9099 65.1214 23.9373 65.1044 23.9707C65.0879 24.0031 65.0661 24.0502 65.0464 24.1092C65.0275 24.166 65.0033 24.2552 64.9968 24.3672C64.9901 24.4805 65.0002 24.6428 65.0755 24.8192C65.1134 24.9079 65.1652 24.9935 65.2312 25.0716C65.297 25.1496 65.3708 25.2128 65.4467 25.2626C65.5958 25.3605 65.7403 25.3988 65.8395 25.4145C65.9392 25.4302 66.0223 25.4279 66.0767 25.4236C66.1331 25.419 66.1797 25.4105 66.2127 25.4032C66.2767 25.3891 66.3263 25.3715 66.3534 25.3613L65.6469 23.4902ZM65.2655 23.724C64.4672 24.3633 63.555 24.909 62.5119 25.1916L63.035 27.122C64.4216 26.7463 65.577 26.0369 66.5157 25.2851L65.2655 23.724ZM61.8157 26.4446L64.5848 35.6606L66.5002 35.0851L63.7311 25.8691L61.8157 26.4446Z" fill="#333333" mask="url(#path-9-inside-1)"/>
<path d="M0.500663 39.1094L0.519086 24.3543L60.1928 25.8337L60.4309 26.6632L60.9115 26.5252L60.4309 26.6632L62.9481 35.4324L0.500663 39.1094Z" fill="#3F8CFF" stroke="#333333"/>
<path d="M63.8814 35.9606L63.8428 35.8263L63.8428 35.8263L63.6924 35.3023L63.6924 35.3023L61.1533 26.4567L61.1533 26.4567L60.9121 25.6162L61.0014 25.5973L61.0014 25.5973L62.2665 25.331L62.5367 26.2298L62.5367 26.2298L65.3057 35.4457L65.3058 35.4458L65.3128 35.4692L63.8814 35.9606Z" fill="#3F8CFF" stroke="#333333" stroke-width="0.5"/>
<mask id="path-13-inside-2" fill="white">
<path d="M87.5125 59.9628C93.4238 62.2818 97.9242 61.9757 98.9311 61.9213C99.7049 61.8795 103.866 53.5902 104.912 49.7483C105.252 48.497 103.528 48.1344 103.528 48.1344L94.849 46.9877L95.4698 45.9165C97.8009 41.2281 96.0534 37.9858 94.6561 36.9013C93.2586 35.8165 91.5287 36.3871 91.4327 37.3178C91.3354 38.2493 91.2076 39.6204 91.205 41.6128C91.2015 44.4385 89.1593 46.2733 88.4074 46.8531C88.3631 46.8679 88.3164 46.8971 88.2644 46.9567C87.4882 47.848 85.6153 48.6331 84.1855 49.0313L87.0372 59.9628"/>
</mask>
<path d="M87.5125 59.9628C93.4238 62.2818 97.9242 61.9757 98.9311 61.9213C99.7049 61.8795 103.866 53.5902 104.912 49.7483C105.252 48.497 103.528 48.1344 103.528 48.1344L94.849 46.9877L95.4698 45.9165C97.8009 41.2281 96.0534 37.9858 94.6561 36.9013C93.2586 35.8165 91.5287 36.3871 91.4327 37.3178C91.3354 38.2493 91.2076 39.6204 91.205 41.6128C91.2015 44.4385 89.1593 46.2733 88.4074 46.8531C88.3631 46.8679 88.3164 46.8971 88.2644 46.9567C87.4882 47.848 85.6153 48.6331 84.1855 49.0313L87.0372 59.9628" fill="white"/>
<path d="M98.9311 61.9213L98.8772 60.9227L98.8772 60.9227L98.9311 61.9213ZM104.912 49.7483L105.877 50.0109L105.877 50.0109L104.912 49.7483ZM103.528 48.1344L103.734 47.1558L103.696 47.148L103.659 47.143L103.528 48.1344ZM94.849 46.9877L93.9838 46.4863L93.2324 47.7828L94.718 47.9791L94.849 46.9877ZM95.4698 45.9165L96.335 46.4179L96.351 46.3903L96.3652 46.3617L95.4698 45.9165ZM94.6561 36.9013L94.043 37.6913L94.043 37.6913L94.6561 36.9013ZM91.4327 37.3178L92.4273 37.4216L92.4274 37.4205L91.4327 37.3178ZM91.205 41.6128L90.205 41.6116V41.6116L91.205 41.6128ZM88.4074 46.8531L88.7229 47.8021L88.8838 47.7486L89.018 47.645L88.4074 46.8531ZM88.2644 46.9567L87.5106 46.2997L87.5104 46.3L88.2644 46.9567ZM84.1855 49.0313L83.9172 48.068L82.9696 48.332L83.2179 49.2838L84.1855 49.0313ZM87.1473 60.8938C93.2543 63.2895 97.9221 62.9773 98.9851 62.9198L98.8772 60.9227C97.9262 60.9741 93.5934 61.2741 87.8777 59.0319L87.1473 60.8938ZM98.985 62.9198C99.3974 62.8976 99.6827 62.6512 99.772 62.5732C99.9098 62.4529 100.037 62.3077 100.149 62.1672C100.377 61.8813 100.632 61.4985 100.898 61.0634C101.435 60.1859 102.074 58.9973 102.715 57.7039C103.99 55.1325 105.327 52.0289 105.877 50.0109L103.947 49.4857C103.45 51.3096 102.184 54.2715 100.923 56.8157C100.297 58.0802 99.6859 59.2118 99.1917 60.0204C98.9424 60.4283 98.7373 60.73 98.5854 60.9204C98.5489 60.9663 98.5188 61.0014 98.4951 61.0273C98.4834 61.0401 98.4741 61.0497 98.4672 61.0565C98.4638 61.0599 98.4612 61.0624 98.4593 61.0641C98.4575 61.0659 98.4566 61.0667 98.4566 61.0666C98.4566 61.0666 98.4578 61.0656 98.4601 61.0637C98.4625 61.0618 98.4663 61.0588 98.4716 61.055C98.4815 61.0477 98.5001 61.0348 98.5271 61.0198C98.5707 60.9955 98.6945 60.9326 98.8772 60.9227L98.985 62.9198ZM105.877 50.0109C106.028 49.4549 105.957 48.9325 105.718 48.4918C105.495 48.0802 105.162 47.805 104.884 47.6283C104.601 47.4485 104.317 47.3336 104.116 47.2646C104.012 47.2291 103.924 47.2034 103.858 47.186C103.825 47.1772 103.798 47.1705 103.777 47.1655C103.766 47.163 103.757 47.161 103.75 47.1594C103.746 47.1586 103.743 47.1579 103.741 47.1573C103.739 47.157 103.738 47.1567 103.737 47.1565C103.736 47.1563 103.736 47.1562 103.735 47.1561C103.735 47.1561 103.734 47.156 103.734 47.1559C103.734 47.1559 103.734 47.1558 103.528 48.1344C103.322 49.113 103.322 49.1129 103.321 49.1128C103.321 49.1128 103.321 49.1128 103.321 49.1127C103.32 49.1126 103.32 49.1125 103.319 49.1125C103.319 49.1123 103.318 49.1122 103.318 49.112C103.316 49.1118 103.316 49.1116 103.315 49.1116C103.315 49.1114 103.315 49.1115 103.317 49.112C103.321 49.113 103.331 49.1152 103.344 49.1188C103.372 49.1261 103.415 49.1386 103.468 49.1566C103.579 49.1947 103.705 49.2487 103.811 49.3159C103.921 49.3863 103.955 49.4364 103.96 49.4447C103.96 49.4454 103.959 49.4439 103.958 49.4403C103.957 49.4367 103.956 49.4334 103.956 49.4313C103.955 49.4251 103.959 49.4405 103.947 49.4858L105.877 50.0109ZM103.659 47.143L94.98 45.9963L94.718 47.9791L103.397 49.1258L103.659 47.143ZM95.7142 47.4891L96.335 46.4179L94.6046 45.4151L93.9838 46.4863L95.7142 47.4891ZM96.3652 46.3617C98.8939 41.276 97.068 37.5073 95.2693 36.1113L94.043 37.6913C95.0389 38.4643 96.708 41.1801 94.5744 45.4713L96.3652 46.3617ZM95.2693 36.1114C94.34 35.39 93.2628 35.1933 92.3609 35.373C91.5393 35.5367 90.551 36.1197 90.438 37.2151L92.4274 37.4205C92.4104 37.5851 92.335 37.4175 92.7518 37.3344C93.0883 37.2674 93.5747 37.3278 94.043 37.6913L95.2693 36.1114ZM90.4381 37.214C90.3388 38.165 90.2076 39.5728 90.205 41.6116L92.205 41.6141C92.2075 39.668 92.3321 38.3337 92.4273 37.4216L90.4381 37.214ZM90.205 41.6116C90.2021 43.9475 88.4946 45.5231 87.7967 46.0612L89.018 47.645C89.824 47.0235 92.2009 44.9295 92.205 41.6141L90.205 41.6116ZM88.0919 45.9042C87.8482 45.9852 87.6574 46.1312 87.5106 46.2997L89.0183 47.6138C89.0003 47.6345 88.9658 47.6698 88.9126 47.707C88.8571 47.746 88.7928 47.7788 88.7229 47.8021L88.0919 45.9042ZM87.5104 46.3C87.2586 46.589 86.7461 46.9369 86.037 47.2776C85.3531 47.6061 84.5836 47.8824 83.9172 48.068L84.4539 49.9947C85.2173 49.782 86.0991 49.4666 86.9031 49.0803C87.682 48.7061 88.494 48.2158 89.0185 47.6135L87.5104 46.3ZM83.2179 49.2838L86.0696 60.2153L88.0049 59.7104L85.1532 48.7789L83.2179 49.2838Z" fill="#333333" mask="url(#path-13-inside-2)"/>
<path d="M1.23112 64.9609L1.25374 46.6463L81.8802 48.4864L82.12 49.4206L83.9827 56.6772L83.9835 56.6806L84.9072 60.3883L84.9073 60.3884L84.9194 60.437L1.23112 64.9609Z" fill="#FFB531" stroke="#333333"/>
<mask id="path-16-inside-3" fill="white">
<path d="M87.5104 60.6664L84.4729 48.2281L84.2048 47.1309L82.0195 47.539L82.2942 48.7226L84.1589 56.7627L85.1397 60.8677L85.3788 60.8681L85.1854 60.8678L85.3101 61.3893L86.8989 60.8701H86.8869L87.5104 60.6664Z"/>
</mask>
<path d="M87.5104 60.6664L84.4729 48.2281L84.2048 47.1309L82.0195 47.539L82.2942 48.7226L84.1589 56.7627L85.1397 60.8677L85.3788 60.8681L85.1854 60.8678L85.3101 61.3893L86.8989 60.8701H86.8869L87.5104 60.6664Z" fill="#3F8CFF"/>
<path d="M87.5104 60.6664L87.8209 61.617L88.7017 61.3293L88.4818 60.4292L87.5104 60.6664ZM84.4729 48.2281L85.4444 47.9908L85.4444 47.9907L84.4729 48.2281ZM84.2048 47.1309L85.1763 46.8935L84.9516 45.9741L84.0212 46.1479L84.2048 47.1309ZM82.0195 47.539L81.8359 46.556L80.8093 46.7478L81.0454 47.7651L82.0195 47.539ZM82.2942 48.7226L83.2684 48.4967L83.2684 48.4965L82.2942 48.7226ZM84.1589 56.7627L83.1847 56.9886L83.1863 56.9951L84.1589 56.7627ZM85.1397 60.8677L84.1671 61.1001L84.3503 61.8667L85.1384 61.8677L85.1397 60.8677ZM85.3788 60.8681L85.3774 61.8681L85.3801 59.8681L85.3788 60.8681ZM85.1854 60.8678L85.1868 59.8678L83.9178 59.8661L84.2129 61.1003L85.1854 60.8678ZM85.3101 61.3893L84.3375 61.6218L84.5898 62.6768L85.6208 62.3398L85.3101 61.3893ZM86.8989 60.8701L87.2096 61.8206L86.8989 59.8701V60.8701ZM86.8869 60.8701L86.5764 59.9195L86.8869 61.8701V60.8701ZM88.4818 60.4292L85.4444 47.9908L83.5015 48.4653L86.5389 60.9036L88.4818 60.4292ZM85.4444 47.9907L85.1763 46.8935L83.2334 47.3682L83.5015 48.4654L85.4444 47.9907ZM84.0212 46.1479L81.8359 46.556L82.2031 48.522L84.3884 48.1139L84.0212 46.1479ZM81.0454 47.7651L81.3201 48.9487L83.2684 48.4965L82.9936 47.3129L81.0454 47.7651ZM81.3201 48.9485L83.1847 56.9886L85.133 56.5367L83.2684 48.4967L81.3201 48.9485ZM83.1863 56.9951L84.1671 61.1001L86.1124 60.6353L85.1315 56.5303L83.1863 56.9951ZM85.1384 61.8677L85.3774 61.8681L85.3801 59.8681L85.1411 59.8677L85.1384 61.8677ZM85.3801 59.8681L85.1868 59.8678L85.1841 61.8678L85.3774 61.8681L85.3801 59.8681ZM84.2129 61.1003L84.3375 61.6218L86.2827 61.1568L86.158 60.6353L84.2129 61.1003ZM85.6208 62.3398L87.2096 61.8206L86.5882 59.9195L84.9995 60.4388L85.6208 62.3398ZM86.8989 59.8701H86.8869V61.8701H86.8989V59.8701ZM87.1974 61.8206L87.8209 61.617L87.1999 59.7158L86.5764 59.9195L87.1974 61.8206Z" fill="#333333" mask="url(#path-16-inside-3)"/>
</svg>
